#!OML:ASF C:\ViconDB\ViconDB\414\Spring2016\041811\Spring2016.ASF
:FULLY-SPECIFIED
:DEGREES
331
root 10.1335 17.6932 -20.0298 -176.043 -6.85644 -181.241
lowerback -2.89056 -2.33831 2.57796
upperback -2.64172 -3.29567 1.86209
thorax -1.12565 -1.73056 0.40867
lowerneck -9.79338 -2.24599 -9.9838
upperneck 30.9277 -0.235872 6.54493
head 11.7742 0.560385 4.39017
rclavicle -5.32246e-014 -5.56597e-015
rhumerus -85.4782 33.0292 -113.97
rradius 94.5136
rwrist 32.8517
rhand -36.606 1.12016
rfingers 7.12502
rthumb -9.69454 -28.6367
lclavicle -5.32246e-014 -5.56597e-015
lhumerus -91.5333 -41.2724 122.963
lradius 78.2393
lwrist -22.2292
lhand -42.3298 -0.839857
lfingers 7.12502
lthumb -15.2129 28.5808
rfemur 178.143 398.451 -149.864
rtibia 39.2482
rfoot -31.76 -56.6599
rtoes -27.9253
lfemur -4.19197 2.20831 -20.9118
ltibia 50.4046
lfoot 15.4026 -23.9965
ltoes -12.8069
332
root 10.1569 17.7183 -20.1968 -176.328 -6.98491 -180.263
lowerback -2.65697 -2.24484 3.08043
upperback -2.47885 -3.17186 1.9493
thorax -1.11018 -1.67289 0.22691
lowerneck -9.6545 -2.47113 -10.0414
upperneck 30.7303 -0.80857 7.28941
head 11.7191 0.381266 4.60376
rclavicle -4.07757e-014 2.14687e-014
rhumerus -85.6557 33.1837 -114.169
rradius 94.1286
rwrist 33.9876
rhand -37.5266 0.0461593
rfingers 7.12502
rthumb -10.5826 -29.6674
lclavicle -4.07757e-014 2.14687e-014
lhumerus -91.4793 -41.6837 123.072
lradius 78.4775
lwrist -21.9047
lhand -42.3027 -1.21485
lfingers 7.12502
lthumb -15.1868 28.2078
rfemur 177.521 400.029 -148.703
rtibia 39.0011
rfoot -33.7413 -56.0528
rtoes -27.2903
lfemur -6.57897 2.44093 -19.1025
ltibia 54.1508
lfoot 14.1026 -23.1921
ltoes -11.8324
333
root 10.1801 17.7473 -20.3684 -176.704 -7.05959 -179.947
lowerback -2.36147 -2.17718 2.80219
upperback -2.22756 -3.05375 1.93668
thorax -1.00106 -1.59964 0.375634
lowerneck -9.52657 -2.6879 -10.2104
upperneck 30.5289 -1.33803 8.04462
head 11.6688 0.209721 4.84756
rclavicle 1.51325e-014 2.38542e-015
rhumerus -85.4122 33.0489 -113.755
rradius 94.1449
rwrist 32.9989
rhand -36.8819 1.35485
rfingers 7.12502
rthumb -9.9607 -28.3895
lclavicle 1.51325e-014 2.38542e-015
lhumerus -91.2602 -42.04 123.144
lradius 78.5729
lwrist -21.9334
lhand -42.0817 -1.41265
lfingers 7.12502
lthumb -14.9738 28.026
rfemur 176.639 401.824 -148.447
rtibia 38.7982
rfoot -36.0476 -55.5489
rtoes -26.8255
lfemur -8.76551 2.84739 -18.0304
ltibia 57.5773
lfoot 12.1893 -21.8387
ltoes -11.9075
334
root 10.2084 17.7652 -20.5275 -177.072 -7.01427 -179.419
lowerback -1.93747 -2.08848 2.71034
upperback -2.025 -2.9099 1.95053
thorax -1.02305 -1.52005 0.455014
lowerneck -9.52689 0.352231 -10.8446
upperneck 29.9048 -2.94336 10.1089
head 11.497 -2.39371 5.11489
rclavicle -1.02374e-014 2.06736e-014
rhumerus -85.8261 33.397 -114.136
rradius 93.9583
rwrist 32.4861
rhand -37.3088 1.46033
rfingers 7.12502
rthumb -10.3725 -28.2638
lclavicle -1.02374e-014 2.06736e-014
lhumerus -90.9524 -42.2475 123
lradius 78.5988
lwrist -22.6011
lhand -41.8927 -1.26178
lfingers 7.12502
lthumb -14.7918 28.1903
rfemur 175.81 403.28 -147.977
rtibia 38.5819
rfoot -37.8423 -55.1824
rtoes -25.9195
lfemur -11.0763 2.88314 -16.8631
ltibia 60.8277
lfoot 9.71707 -19.6092
ltoes -12.6649
335
root 10.2438 17.785 -20.6877 -177.402 -6.88414 -179.144
lowerback -1.53579 -1.8928 2.39541
upperback -1.84684 -2.61638 1.77329
thorax -1.05563 -1.36156 0.462137
lowerneck -9.40573 0.11468 -10.667
upperneck 29.7903 -3.60775 10.8396
head 11.5207 -2.60756 5.27845
rclavicle -5.73991e-015 3.89618e-014
rhumerus -86.2208 33.5235 -114.638
rradius 93.6881
rwrist 32.0074
rhand -37.3693 1.43309
rfingers 7.12502
rthumb -10.4309 -28.2882
lclavicle -5.73991e-015 3.89618e-014
lhumerus -90.9376 -42.652 123.086
lradius 78.7041
lwrist -22.154
lhand -41.9138 -1.54709
lfingers 7.12502
lthumb -14.8121 27.9035
rfemur 174.918 404.483 -147.889
rtibia 38.3982
rfoot -39.8489 -54.5691
rtoes -26.2142
lfemur -13.2906 3.10218 -15.9466
ltibia 63.6966
lfoot 7.41261 -16.9687
ltoes -12.5903
336
root 10.2754 17.8045 -20.8427 -177.707 -6.66649 -178.571
lowerback -1.11747 -1.69897 2.28518
upperback -1.72946 -2.33842 1.80076
thorax -1.16126 -1.21851 0.564698
lowerneck -9.15659 -0.112242 -10.8174
upperneck 29.5599 -4.21699 11.6776
head 11.4785 -2.82571 5.54549
rclavicle 4.33226e-014 -3.53837e-014
rhumerus -86.8728 33.8496 -115.199
rradius 93.4847
rwrist 31.3057
rhand -37.4101 1.17942
rfingers 7.12502
rthumb -10.4702 -28.5398
lclavicle 4.33226e-014 -3.53837e-014
lhumerus -90.8667 -42.8658 123.231
lradius 78.8608
lwrist -21.8228
lhand -41.7992 -1.80187
lfingers 7.12502
lthumb -14.7017 27.6568
rfemur 174.136 405.709 -147.422
rtibia 38.1583
rfoot -41.4359 -54.2113
rtoes -25.0977
lfemur -15.5874 3.435 -14.6764
ltibia 66.2948
lfoot 5.20626 -14.2017
ltoes -12.0845
337
root 10.3128 17.8224 -20.9979 -177.957 -6.44991 -178.219
lowerback -0.823972 -1.47009 2.00991
upperback -1.55417 -2.01291 1.64539
thorax -1.13963 -1.04623 0.564261
lowerneck -9.08519 -0.301651 -10.5237
upperneck 29.4848 -4.83959 12.3662
head 11.5322 -3.02293 5.67838
rclavicle -4.28629e-015 -1.94809e-014
rhumerus -87.3022 34.0527 -115.845
rradius 93.0917
rwrist 30.8404
rhand -37.9152 0.756931
rfingers 7.12502
rthumb -10.9575 -28.9371
lclavicle -4.28629e-015 -1.94809e-014
lhumerus -91.0443 -43.277 123.459
lradius 79.0926
lwrist -21.5241
lhand -42.0442 -1.6592
lfingers 7.12502
lthumb -14.9377 27.7821
rfemur 173.317 406.63 -147.301
rtibia 37.936
rfoot -42.7188 -53.7063
rtoes -24.7921
lfemur -17.8275 3.68349 -13.6844
ltibia 68.4931
lfoot 3.17228 -11.1684
ltoes -11.9999
